<svg width="80" height="80" viewBox="0 0 80 80" fill="none" xmlns="http://www.w3.org/2000/svg">
<path d="M43.3333 26.6667C45.9855 26.6667 48.529 27.7202 50.4044 29.5956C52.2798 31.471 53.3333 34.0145 53.3333 36.6667C53.3333 37.5507 53.6845 38.3986 54.3096 39.0237C54.9348 39.6488 55.7826 40 56.6667 40C57.5507 40 58.3986 39.6488 59.0237 39.0237C59.6488 38.3986 60 37.5507 60 36.6667C60 32.2464 58.2441 28.0072 55.1184 24.8816C51.9928 21.7559 47.7536 20 43.3333 20C42.4493 20 41.6014 20.3512 40.9763 20.9763C40.3512 21.6014 40 22.4493 40 23.3333C40 24.2174 40.3512 25.0652 40.9763 25.6904C41.6014 26.3155 42.4493 26.6667 43.3333 26.6667Z" fill="white"/>
<path d="M43.3333 13.3333C49.5217 13.3333 55.4566 15.7916 59.8324 20.1675C64.2083 24.5433 66.6666 30.4782 66.6666 36.6666C66.6666 37.5507 67.0178 38.3985 67.6429 39.0236C68.2681 39.6488 69.1159 40 70 40C70.884 40 71.7319 39.6488 72.357 39.0236C72.9821 38.3985 73.3333 37.5507 73.3333 36.6666C73.3333 28.7101 70.1726 21.0795 64.5465 15.4534C58.9204 9.82733 51.2898 6.66663 43.3333 6.66663C42.4492 6.66663 41.6014 7.01782 40.9763 7.64294C40.3512 8.26806 40 9.1159 40 9.99996C40 10.884 40.3512 11.7319 40.9763 12.357C41.6014 12.9821 42.4492 13.3333 43.3333 13.3333ZM72.5 53.0333C72.3166 52.4982 72.0001 52.0185 71.5803 51.6395C71.1604 51.2604 70.651 50.9945 70.1 50.8666L50.1 46.3C49.5571 46.1769 48.992 46.1917 48.4563 46.3431C47.9207 46.4945 47.4314 46.7776 47.0333 47.1666C46.5666 47.6 46.5333 47.6333 44.3666 51.7666C37.1773 48.4538 31.4166 42.6695 28.1333 35.4666C32.3666 33.3333 32.4 33.3333 32.8333 32.8333C33.2223 32.4351 33.5055 31.9459 33.6568 31.4102C33.8082 30.8746 33.823 30.3095 33.7 29.7666L29.1333 9.99996C29.0054 9.44895 28.7395 8.93953 28.3604 8.51966C27.9814 8.0998 27.5017 7.7833 26.9666 7.59996C26.1882 7.32192 25.3843 7.12096 24.5666 6.99996C23.7241 6.80461 22.8644 6.69296 22 6.66663C17.9333 6.66663 14.0332 8.2821 11.1577 11.1577C8.2821 14.0332 6.66663 17.9333 6.66663 22C6.68427 35.609 12.0982 48.6556 21.7213 58.2786C31.3443 67.9017 44.3909 73.3157 58 73.3333C60.0136 73.3333 62.0074 72.9367 63.8678 72.1661C65.7281 71.3955 67.4184 70.2661 68.8423 68.8423C70.2661 67.4184 71.3955 65.7281 72.1661 63.8678C72.9367 62.0074 73.3333 60.0136 73.3333 58C73.3343 57.1515 73.2674 56.3044 73.1333 55.4666C72.9932 54.6387 72.7813 53.8245 72.5 53.0333Z" fill="white"/>
</svg>
