<svg width="80" height="80" viewBox="0 0 80 80" fill="none" xmlns="http://www.w3.org/2000/svg">
<path d="M6.68 73.3333L11.1867 56.7733C8.21713 51.6828 6.65699 45.8933 6.66667 40C6.66667 21.59 21.59 6.66663 40 6.66663C58.41 6.66663 73.3333 21.59 73.3333 40C73.3333 58.41 58.41 73.3333 40 73.3333C34.1093 73.3428 28.3222 71.7839 23.2333 68.8166L6.68 73.3333ZM27.97 24.36C27.5395 24.3867 27.1189 24.5001 26.7333 24.6933C26.3717 24.8981 26.0417 25.154 25.7533 25.4533C25.3533 25.83 25.1267 26.1566 24.8833 26.4733C23.6514 28.0766 22.9887 30.0447 23 32.0666C23.0067 33.7 23.4333 35.29 24.1 36.7766C25.4633 39.7833 27.7067 42.9666 30.67 45.9166C31.3833 46.6266 32.08 47.34 32.83 48.0033C36.508 51.2415 40.8909 53.5768 45.63 54.8233L47.5267 55.1133C48.1433 55.1466 48.76 55.1 49.38 55.07C50.3508 55.0198 51.2987 54.757 52.1567 54.3C52.5932 54.0751 53.0192 53.8304 53.4333 53.5666C53.4333 53.5666 53.5767 53.4733 53.85 53.2666C54.3 52.9333 54.5767 52.6966 54.95 52.3066C55.2267 52.02 55.4667 51.6833 55.65 51.3C55.91 50.7566 56.17 49.72 56.2767 48.8566C56.3567 48.1966 56.3333 47.8366 56.3233 47.6133C56.31 47.2566 56.0133 46.8866 55.69 46.73L53.75 45.86C53.75 45.86 50.85 44.5966 49.08 43.79C48.8934 43.7086 48.6934 43.6623 48.49 43.6533C48.2619 43.6299 48.0315 43.6555 47.8142 43.7285C47.5968 43.8016 47.3977 43.9202 47.23 44.0766V44.07C47.2133 44.07 46.99 44.26 44.58 47.18C44.4417 47.3658 44.2511 47.5063 44.0327 47.5835C43.8142 47.6607 43.5777 47.671 43.3533 47.6133C43.1361 47.5552 42.9234 47.4817 42.7167 47.3933C42.3033 47.22 42.16 47.1533 41.8767 47.03L41.86 47.0233C39.953 46.1907 38.1874 45.0661 36.6267 43.69C36.2067 43.3233 35.8167 42.9233 35.4167 42.5366C34.1053 41.2808 32.9624 39.86 32.0167 38.31L31.82 37.9933C31.6787 37.7805 31.5645 37.551 31.48 37.31C31.3533 36.82 31.6833 36.4266 31.6833 36.4266C31.6833 36.4266 32.4933 35.54 32.87 35.06C33.1836 34.661 33.4763 34.246 33.7467 33.8166C34.14 33.1833 34.2633 32.5333 34.0567 32.03C33.1233 29.75 32.1567 27.48 31.1633 25.2266C30.9667 24.78 30.3833 24.46 29.8533 24.3966C29.6733 24.3766 29.4933 24.3566 29.3133 24.3433C28.8657 24.3211 28.4171 24.3255 27.97 24.3566V24.36Z" fill="white"/>
</svg>
