<svg width="200" height="200" viewBox="0 0 200 200" fill="none" xmlns="http://www.w3.org/2000/svg">
<g clip-path="url(#clip0_14_100)">
<path d="M61.7229 100C50.8978 100.335 41.1138 105.357 34.14 114.286H20.1929C9.78412 114.286 0.000513135 108.929 0.000513135 96.5406C0.000513135 87.5004 -0.31169 57.1434 12.9069 57.1434C15.0927 57.1434 25.9178 66.6297 39.9688 66.6297C44.7568 66.6297 49.3368 65.7367 53.8122 64.0625C53.5 66.518 53.2916 68.9734 53.2916 71.4285C53.2916 81.5848 56.3102 91.6297 61.7225 100H61.7229ZM173.198 171.094C173.198 189.174 162.061 200 145.407 200H54.4366C37.7827 200 26.646 189.174 26.646 171.094C26.646 145.87 32.1626 107.143 62.6595 107.143C66.1983 107.143 79.1051 122.656 99.9222 122.656C120.739 122.656 133.646 107.143 137.185 107.143C167.682 107.143 173.198 145.871 173.198 171.094H173.198ZM66.6147 28.5715C66.6147 44.3078 54.645 57.143 39.9688 57.143C25.2927 57.143 13.3229 44.3082 13.3229 28.5715C13.3229 12.8348 25.2927 0 39.9688 0C54.645 0 66.6147 12.8348 66.6147 28.5715ZM139.891 71.4285C139.891 95.0891 121.988 114.286 99.9222 114.286C77.8562 114.286 59.9535 95.0895 59.9535 71.4289C59.9535 47.7684 77.8562 28.5715 99.9222 28.5715C121.988 28.5715 139.891 47.768 139.891 71.4289V71.4285ZM199.844 96.5402C199.844 108.929 190.06 114.286 179.652 114.286H165.704C158.731 105.357 148.947 100.335 138.122 100C143.534 91.6297 146.553 81.5848 146.553 71.4285C146.553 68.973 146.344 66.518 146.033 64.0625C150.508 65.7367 155.088 66.6297 159.876 66.6297C173.928 66.6297 184.752 57.143 186.938 57.143C200.156 57.143 199.844 87.5 199.844 96.5402ZM186.521 28.5715C186.521 44.3078 174.551 57.143 159.875 57.143C145.199 57.143 133.229 44.3082 133.229 28.5715C133.229 12.8348 145.199 0 159.875 0C174.551 0 186.521 12.8348 186.521 28.5715Z" fill="#120D5C"/>
</g>
<defs>
<clipPath id="clip0_14_100">
<rect width="200" height="200" fill="white"/>
</clipPath>
</defs>
</svg>
